<svg width="20" height="20" viewBox="0 0 20 20" fill="none" xmlns="http://www.w3.org/2000/svg">
<path opacity="0.4" d="M13.3967 1.66663H16.2183C17.3869 1.66663 18.3338 2.6215 18.3338 3.79993V6.6454C18.3338 7.82382 17.3869 8.7787 16.2183 8.7787H13.3967C12.2281 8.7787 11.2812 7.82382 11.2812 6.6454V3.79993C11.2812 2.6215 12.2281 1.66663 13.3967 1.66663Z" fill="#CECECE"/>
<path fill-rule="evenodd" clip-rule="evenodd" d="M3.78341 1.66663H6.60504C7.7736 1.66663 8.72048 2.6215 8.72048 3.79993V6.6454C8.72048 7.82382 7.7736 8.7787 6.60504 8.7787H3.78341C2.61485 8.7787 1.66797 7.82382 1.66797 6.6454V3.79993C1.66797 2.6215 2.61485 1.66663 3.78341 1.66663ZM3.78341 11.2212H6.60504C7.7736 11.2212 8.72048 12.1761 8.72048 13.3545V16.2C8.72048 17.3776 7.7736 18.3333 6.60504 18.3333H3.78341C2.61485 18.3333 1.66797 17.3776 1.66797 16.2V13.3545C1.66797 12.1761 2.61485 11.2212 3.78341 11.2212ZM16.2183 11.2212H13.3967C12.2281 11.2212 11.2812 12.1761 11.2812 13.3545V16.2C11.2812 17.3776 12.2281 18.3333 13.3967 18.3333H16.2183C17.3869 18.3333 18.3338 17.3776 18.3338 16.2V13.3545C18.3338 12.1761 17.3869 11.2212 16.2183 11.2212Z" fill="#CECECE"/>
</svg>
