<svg width="27" height="27" viewBox="0 0 27 27" fill="none" xmlns="http://www.w3.org/2000/svg">
<path fill-rule="evenodd" clip-rule="evenodd" d="M7.22078 0C7.47057 0 7.71013 0.101594 7.88676 0.282433C8.06339 0.463271 8.16262 0.708541 8.16262 0.964286V1.94529C8.99395 1.92857 9.90942 1.92857 10.9178 1.92857H16.0816C17.09 1.92857 18.0055 1.92857 18.8368 1.94529V0.964286C18.8368 0.708541 18.936 0.463271 19.1127 0.282433C19.2893 0.101594 19.5289 0 19.7786 0C20.0284 0 20.268 0.101594 20.4446 0.282433C20.6213 0.463271 20.7205 0.708541 20.7205 0.964286V2.02757C21.047 2.05329 21.3559 2.08543 21.6485 2.12529C23.1203 2.32843 24.312 2.75529 25.2526 3.717C26.192 4.68 26.6089 5.90014 26.8073 7.407C26.8701 7.88914 26.9128 8.415 26.9417 8.98843C27.0102 9.17808 27.0186 9.38506 26.9655 9.57986C26.9994 10.6097 26.9994 11.781 26.9994 13.1066V15.822C26.9994 18.1851 26.9994 20.0571 26.8073 21.5216C26.6089 23.0284 26.192 24.2486 25.2526 25.2116C24.312 26.1733 23.1203 26.6001 21.6485 26.8033C20.2169 27 18.3897 27 16.0816 27H10.9178C8.60968 27 6.78125 27 5.35091 26.8033C3.87913 26.6001 2.68738 26.1733 1.7468 25.2116C0.807471 24.2486 0.39055 23.0284 0.192135 21.5216C0 20.0559 0 18.1851 0 15.822V13.1066C0 11.781 -6.31553e-08 10.6097 0.0339062 9.57857C-0.0184967 9.38361 -0.00971046 9.17671 0.0590221 8.98714C0.0866494 8.415 0.129346 7.88914 0.192135 7.407C0.39055 5.90014 0.807471 4.68 1.7468 3.717C2.68738 2.75529 3.87913 2.32843 5.35091 2.12529C5.64351 2.08543 5.95369 2.05329 6.27894 2.02757V0.964286C6.27894 0.708541 6.37816 0.463271 6.55479 0.282433C6.73142 0.101594 6.97098 0 7.22078 0ZM1.90001 10.2857C1.88368 11.1253 1.88368 12.0806 1.88368 13.1786V15.75C1.88368 18.2019 1.88619 19.944 2.05949 21.2657C2.22902 22.5579 2.54799 23.3036 3.07919 23.8474C3.61039 24.3913 4.33874 24.7179 5.60207 24.8914C6.89302 25.0689 8.59335 25.0714 10.9881 25.0714H16.0113C18.4061 25.0714 20.1077 25.0689 21.3986 24.8914C22.6607 24.7179 23.389 24.3913 23.9202 23.8474C24.4514 23.3036 24.7704 22.5579 24.9399 21.2644C25.1132 19.944 25.1157 18.2019 25.1157 15.75V13.1786C25.1157 12.0806 25.1157 11.1253 25.0994 10.2857H1.90001ZM25.0128 8.35714H1.98666C2.00675 8.11286 2.03061 7.88271 2.05949 7.66286C2.22902 6.37071 2.54799 5.625 3.07919 5.08114C3.61039 4.53729 4.33874 4.21071 5.60207 4.03714C6.89302 3.85971 8.59335 3.85714 10.9881 3.85714H16.0113C18.4061 3.85714 20.1077 3.85971 21.3986 4.03714C22.6607 4.21071 23.389 4.53729 23.9202 5.08114C24.4514 5.625 24.7704 6.37071 24.9399 7.66414C24.9688 7.88271 24.9927 8.11414 25.0128 8.35714ZM11.9764 13.5733C12.1486 13.6463 12.2957 13.7699 12.3992 13.9285C12.5027 14.0871 12.5579 14.2735 12.5579 14.4643V19.6071C12.5579 19.8629 12.4586 20.1082 12.282 20.289C12.1054 20.4698 11.8658 20.5714 11.616 20.5714C11.3662 20.5714 11.1267 20.4698 10.95 20.289C10.7734 20.1082 10.6742 19.8629 10.6742 19.6071V16.7914L10.3979 17.0743C10.2194 17.2446 9.98323 17.3373 9.73923 17.3329C9.49523 17.3285 9.26242 17.2273 9.08986 17.0507C8.9173 16.874 8.81845 16.6356 8.81415 16.3858C8.80984 16.136 8.90042 15.8942 9.06678 15.7114L10.9505 13.7829C11.0821 13.648 11.2498 13.5561 11.4324 13.5188C11.615 13.4815 11.8043 13.5005 11.9764 13.5733ZM16.0113 15.4286C15.928 15.4286 15.8482 15.4624 15.7893 15.5227C15.7304 15.583 15.6973 15.6648 15.6973 15.75V18.3214C15.6973 18.4067 15.7304 18.4884 15.7893 18.5487C15.8482 18.609 15.928 18.6429 16.0113 18.6429C16.0945 18.6429 16.1744 18.609 16.2333 18.5487C16.2922 18.4884 16.3252 18.4067 16.3252 18.3214V15.75C16.3252 15.6648 16.2922 15.583 16.2333 15.5227C16.1744 15.4624 16.0945 15.4286 16.0113 15.4286ZM13.8137 15.75C13.8137 15.1533 14.0452 14.581 14.4573 14.159C14.8695 13.7371 15.4284 13.5 16.0113 13.5C16.5941 13.5 17.1531 13.7371 17.5652 14.159C17.9774 14.581 18.2089 15.1533 18.2089 15.75V18.3214C18.2089 18.9182 17.9774 19.4905 17.5652 19.9124C17.1531 20.3344 16.5941 20.5714 16.0113 20.5714C15.4284 20.5714 14.8695 20.3344 14.4573 19.9124C14.0452 19.4905 13.8137 18.9182 13.8137 18.3214V15.75Z" fill="#1A542A"/>
</svg>
