<svg width="24" height="24" viewBox="0 0 24 24" fill="none" xmlns="http://www.w3.org/2000/svg">
<path d="M11.9699 18.0357H11.9059M11.9561 18.295C11.8121 18.295 11.6953 18.1782 11.6953 18.0341C11.6953 17.8901 11.8121 17.7734 11.9561 17.7734C12.1001 17.7734 12.2169 17.8901 12.2169 18.0341C12.2169 18.1782 12.1001 18.295 11.9561 18.295Z" stroke="#101828" stroke-width="1.5" stroke-linecap="round" stroke-linejoin="round"/>
<path d="M11.9699 12.0123H11.9059M11.9561 12.2716C11.8121 12.2716 11.6953 12.1547 11.6953 12.0107C11.6953 11.8667 11.8121 11.75 11.9561 11.75C12.1001 11.75 12.2169 11.8667 12.2169 12.0107C12.2169 12.1547 12.1001 12.2716 11.9561 12.2716Z" stroke="#101828" stroke-width="1.5" stroke-linecap="round" stroke-linejoin="round"/>
<path d="M11.9699 5.99276H11.9059M11.9561 6.25203C11.8121 6.25203 11.6953 6.13519 11.6953 5.99117C11.6953 5.84715 11.8121 5.73047 11.9561 5.73047C12.1001 5.73047 12.2169 5.84715 12.2169 5.99117C12.2169 6.13519 12.1001 6.25203 11.9561 6.25203Z" stroke="#101828" stroke-width="1.5" stroke-linecap="round" stroke-linejoin="round"/>
<path d="M18.0089 18.0357H17.945M17.9952 18.295C17.8512 18.295 17.7344 18.1782 17.7344 18.0341C17.7344 17.8901 17.8512 17.7734 17.9952 17.7734C18.1392 17.7734 18.256 17.8901 18.256 18.0341C18.256 18.1782 18.1392 18.295 17.9952 18.295Z" stroke="#101828" stroke-width="1.5" stroke-linecap="round" stroke-linejoin="round"/>
<path d="M18.0089 12.0123H17.945M17.9952 12.2716C17.8512 12.2716 17.7344 12.1547 17.7344 12.0107C17.7344 11.8667 17.8512 11.75 17.9952 11.75C18.1392 11.75 18.256 11.8667 18.256 12.0107C18.256 12.1547 18.1392 12.2716 17.9952 12.2716Z" stroke="#101828" stroke-width="1.5" stroke-linecap="round" stroke-linejoin="round"/>
<path d="M18.0089 5.99276H17.945M17.9952 6.25203C17.8512 6.25203 17.7344 6.13519 17.7344 5.99117C17.7344 5.84715 17.8512 5.73047 17.9952 5.73047C18.1392 5.73047 18.256 5.84715 18.256 5.99117C18.256 6.13519 18.1392 6.25203 17.9952 6.25203Z" stroke="#101828" stroke-width="1.5" stroke-linecap="round" stroke-linejoin="round"/>
<path d="M6.01671 18.0357H5.95272M6.00295 18.295C5.85894 18.295 5.74219 18.1782 5.74219 18.0341C5.74219 17.8901 5.85894 17.7734 6.00295 17.7734C6.14697 17.7734 6.26372 17.8901 6.26372 18.0341C6.26372 18.1782 6.14697 18.295 6.00295 18.295Z" stroke="#101828" stroke-width="1.5" stroke-linecap="round" stroke-linejoin="round"/>
<path d="M6.01671 12.0123H5.95272M6.00295 12.2716C5.85894 12.2716 5.74219 12.1547 5.74219 12.0107C5.74219 11.8667 5.85894 11.75 6.00295 11.75C6.14697 11.75 6.26372 11.8667 6.26372 12.0107C6.26372 12.1547 6.14697 12.2716 6.00295 12.2716Z" stroke="#101828" stroke-width="1.5" stroke-linecap="round" stroke-linejoin="round"/>
<path d="M6.01671 5.99276H5.95272M6.00295 6.25203C5.85894 6.25203 5.74219 6.13519 5.74219 5.99117C5.74219 5.84715 5.85894 5.73047 6.00295 5.73047C6.14697 5.73047 6.26372 5.84715 6.26372 5.99117C6.26372 6.13519 6.14697 6.25203 6.00295 6.25203Z" stroke="#101828" stroke-width="1.5" stroke-linecap="round" stroke-linejoin="round"/>
</svg>
