  <svg
          xmlns="http://www.w3.org/2000/svg"
          width="26"
          height="26"
          viewBox="0 0 26 26"
          fill="none"
        >
          <path
            d="M21.0638 12.3696C20.3015 11.4794 19.9552 10.7081 19.9552 9.39755V8.95196C19.9552 7.24421 19.5621 6.14389 18.7076 5.04357C17.3905 3.33477 15.1732 2.30486 13.0026 2.30486H12.9103C10.7854 2.30486 8.63759 3.28748 7.29769 4.92692C6.39648 6.0493 5.95779 7.19691 5.95779 8.95196V9.39755C5.95779 10.7081 5.63423 11.4794 4.84916 12.3696C4.27151 13.0253 4.08691 13.8682 4.08691 14.7804C4.08691 15.6936 4.38663 16.5585 4.98813 17.2616C5.77319 18.1045 6.88182 18.6425 8.01431 18.7361C9.65392 18.9231 11.2935 18.9935 12.957 18.9935C14.6194 18.9935 16.259 18.8758 17.8997 18.7361C19.0311 18.6425 20.1398 18.1045 20.9248 17.2616C21.5253 16.5585 21.826 15.6936 21.826 14.7804C21.826 13.8682 21.6414 13.0253 21.0638 12.3696Z"
            fill="#4D6CBB"
          />
          <path
            opacity="0.4"
            d="M15.0524 20.2823C14.5308 20.1709 11.3522 20.1709 10.8305 20.2823C10.3846 20.3853 9.90234 20.6249 9.90234 21.1503C9.92827 21.6516 10.2218 22.0941 10.6283 22.3747L10.6273 22.3757C11.1531 22.7856 11.7701 23.0462 12.4162 23.1397C12.7605 23.187 13.111 23.1849 13.4678 23.1397C14.1129 23.0462 14.7299 22.7856 15.2557 22.3757L15.2547 22.3747C15.6612 22.0941 15.9547 21.6516 15.9806 21.1503C15.9806 20.6249 15.4984 20.3853 15.0524 20.2823Z"
            fill="#4D6CBB"
          />
        </svg>
