<svg width="29" height="29" viewBox="0 0 29 29" fill="none" xmlns="http://www.w3.org/2000/svg">
<path d="M9.43672 19.225C9.43672 19.4935 9.5434 19.7511 9.73328 19.9409C9.92316 20.1308 10.1807 20.2375 10.4492 20.2375C10.7178 20.2375 10.9753 20.1308 11.1652 19.9409C11.355 19.7511 11.4617 19.4935 11.4617 19.225H9.43672ZM13.4867 12.3737C13.4867 12.6423 13.5934 12.8998 13.7833 13.0897C13.9732 13.2796 14.2307 13.3862 14.4992 13.3862C14.7678 13.3862 15.0253 13.2796 15.2152 13.0897C15.405 12.8998 15.5117 12.6423 15.5117 12.3737H13.4867ZM14.159 10.2272L14.915 9.55629L14.159 10.2286V10.2272ZM5.38672 12.3737C5.38672 12.6423 5.4934 12.8998 5.68328 13.0897C5.87316 13.2796 6.13069 13.3862 6.39922 13.3862C6.66775 13.3862 6.92529 13.2796 7.11517 13.0897C7.30505 12.8998 7.41172 12.6423 7.41172 12.3737H5.38672ZM6.73942 10.2272L5.98342 9.55629L6.73942 10.2286V10.2272ZM7.74922 18.2125C7.48069 18.2125 7.22316 18.3192 7.03328 18.509C6.8434 18.6989 6.73672 18.9565 6.73672 19.225C6.73672 19.4935 6.8434 19.7511 7.03328 19.9409C7.22316 20.1308 7.48069 20.2375 7.74922 20.2375V18.2125ZM13.1492 20.2375C13.4178 20.2375 13.6753 20.1308 13.8652 19.9409C14.055 19.7511 14.1617 19.4935 14.1617 19.225C14.1617 18.9565 14.055 18.6989 13.8652 18.509C13.6753 18.3192 13.4178 18.2125 13.1492 18.2125V20.2375ZM8.99797 10.7875H10.4492V8.76249H8.99797V10.7875ZM10.4492 10.7875H11.9005V8.76249H10.4492V10.7875ZM11.4617 19.225V9.77499H9.43672V19.225H11.4617ZM11.9005 10.7875C12.5147 10.7875 12.8806 10.7888 13.1438 10.8226C13.3841 10.8523 13.3963 10.8928 13.3733 10.8725L14.7179 9.35919C14.3129 8.99739 13.8391 8.86779 13.3949 8.81244C12.9764 8.76114 12.4621 8.76249 11.9005 8.76249V10.7875ZM15.5117 12.3737C15.5117 11.8121 15.5131 11.2978 15.4618 10.8793C15.4064 10.4351 15.2768 9.96129 14.915 9.55629L13.4017 10.9009C13.3814 10.8779 13.4219 10.8901 13.4516 11.1304C13.4854 11.3936 13.4867 11.7595 13.4867 12.3737H15.5117ZM13.3733 10.8725C13.3828 10.881 13.3918 10.89 13.4003 10.8995L14.915 9.55629C14.8533 9.48674 14.7875 9.42092 14.7179 9.35919L13.3733 10.8725ZM8.99797 8.76249C8.43637 8.76249 7.92202 8.76114 7.50352 8.81244C7.05937 8.86779 6.58552 8.99739 6.18052 9.35919L7.52512 10.8725C7.50217 10.8928 7.51432 10.8523 7.75462 10.8226C8.01787 10.7888 8.38372 10.7875 8.99797 10.7875V8.76249ZM7.41172 12.3737C7.41172 11.7595 7.41307 11.3936 7.44682 11.129C7.47652 10.8901 7.51702 10.8779 7.49677 10.8995L5.98342 9.55629C5.62162 9.96129 5.49202 10.4351 5.43667 10.8793C5.38537 11.2978 5.38672 11.8121 5.38672 12.3737H7.41172ZM6.18052 9.35919C6.11032 9.42129 6.04552 9.48609 5.98342 9.55629L7.49677 10.8995C7.50526 10.89 7.51427 10.8824 7.52377 10.8739L6.18052 9.35919ZM7.74922 20.2375H13.1492V18.2125H7.74922V20.2375Z" fill="#A29B55"/>
<path d="M14.5 3.7H11.8C6.70915 3.7 4.16305 3.7 2.5822 5.2822C1 6.86305 1 9.40915 1 14.5C1 19.5909 1 22.1369 2.5822 23.7178C4.16305 25.3 6.70915 25.3 11.8 25.3H14.5M18.55 3.7C22.7539 3.7135 24.9827 3.8458 26.4178 5.2822C28 6.86305 28 9.40915 28 14.5C28 19.5909 28 22.1369 26.4178 23.7178C24.9827 25.1542 22.7539 25.2865 18.55 25.3M18.55 1V28" stroke="#A29B55" stroke-width="2" stroke-linecap="round"/>
</svg>
